<?xml version="1.0" standalone="no"?>
<!DOCTYPE svg PUBLIC "-//W3C//DTD SVG 20010904//EN"
 "http://www.w3.org/TR/2001/REC-SVG-20010904/DTD/svg10.dtd">
<svg version="1.0" xmlns="http://www.w3.org/2000/svg"
 width="3210.000000pt" height="1237.000000pt" viewBox="0 0 3210.000000 1237.000000"
 preserveAspectRatio="xMidYMid meet">

<g transform="translate(0.000000,1237.000000) scale(0.100000,-0.100000)"
fill="#000000" stroke="none">
<path d="M3828 12275 c-3 -4 -64 -10 -135 -15 -164 -11 -374 -43 -588 -90 -27
-6 -65 -14 -83 -17 -18 -3 -35 -9 -38 -14 -3 -5 -15 -9 -26 -9 -12 0 -35 -4
-52 -10 -92 -29 -164 -54 -191 -65 -16 -7 -46 -18 -65 -25 -52 -18 -83 -31
-220 -91 -87 -39 -340 -169 -365 -189 -5 -4 -28 -18 -50 -30 -37 -20 -101 -65
-288 -198 -156 -112 -419 -353 -573 -527 -245 -277 -445 -582 -632 -960 -62
-126 -73 -149 -117 -255 -41 -99 -56 -133 -66 -152 -5 -10 -9 -27 -9 -37 0
-11 -4 -23 -10 -26 -5 -3 -10 -17 -10 -30 0 -13 -5 -27 -10 -30 -6 -3 -10 -15
-10 -26 0 -10 -4 -27 -10 -37 -12 -22 -54 -152 -70 -217 -6 -27 -16 -59 -20
-70 -5 -11 -11 -35 -14 -52 -3 -18 -9 -48 -12 -65 -3 -18 -9 -42 -14 -53 -5
-11 -11 -36 -14 -55 -3 -19 -9 -55 -14 -80 -72 -339 -96 -550 -113 -972 -14
-353 1 -720 40 -938 5 -30 14 -82 20 -115 9 -51 30 -136 73 -285 5 -19 12 -47
15 -63 3 -15 9 -30 14 -33 5 -3 9 -16 9 -29 0 -13 5 -27 10 -30 6 -3 10 -16
10 -29 0 -12 4 -26 9 -31 4 -6 21 -44 36 -85 16 -41 37 -90 47 -108 10 -18 18
-39 18 -47 0 -8 5 -15 10 -15 6 0 10 -6 10 -14 0 -36 170 -320 277 -465 10
-13 27 -36 38 -51 95 -130 324 -368 449 -467 39 -32 73 -60 76 -63 3 -4 50
-37 105 -75 55 -38 102 -72 105 -75 3 -3 16 -11 29 -18 53 -30 89 -51 161 -94
90 -53 241 -127 348 -169 57 -23 78 -32 94 -40 10 -5 25 -9 33 -9 8 0 23 -4
33 -9 27 -15 152 -58 207 -71 28 -6 59 -16 70 -20 11 -5 34 -11 50 -15 17 -3
49 -10 73 -16 150 -33 143 -32 312 -61 198 -34 314 -41 685 -42 397 -1 486 7
753 65 23 5 61 13 85 18 23 5 60 15 82 21 22 6 56 15 75 20 87 22 199 57 255
80 11 4 36 13 55 20 58 20 110 41 155 62 40 19 51 0 37 -63 -7 -28 -12 -62
-12 -76 0 -14 -12 -36 -28 -51 -31 -30 -37 -34 -132 -107 -58 -44 -120 -94
-255 -205 -23 -19 -51 -42 -61 -50 -63 -51 -190 -155 -194 -160 -3 -3 -21 -18
-40 -34 -19 -16 -71 -61 -114 -100 -44 -39 -103 -91 -130 -116 -204 -182 -542
-520 -686 -686 -79 -91 -248 -302 -293 -365 -21 -30 -65 -92 -98 -139 -33 -46
-66 -96 -73 -110 -7 -14 -30 -54 -51 -90 -21 -36 -43 -75 -49 -87 -6 -13 -14
-23 -18 -23 -5 0 -8 -6 -8 -13 0 -8 -6 -27 -14 -43 -33 -69 -76 -174 -96 -239
-13 -38 -26 -79 -31 -90 -44 -111 -89 -374 -96 -572 -5 -140 19 -321 57 -418
70 -182 132 -281 246 -392 222 -218 479 -305 849 -288 134 6 206 20 335 63
127 41 277 121 390 205 71 53 261 237 310 302 21 28 58 75 81 105 87 112 202
299 292 475 32 60 169 356 188 403 5 12 14 33 19 47 6 14 14 35 19 48 5 12 31
76 56 142 26 66 51 128 56 137 5 10 9 26 9 36 0 10 4 22 8 28 4 5 14 27 21 49
14 45 58 170 71 200 4 11 13 40 20 65 23 82 33 115 40 135 4 11 13 40 20 65 7
25 19 63 26 85 7 22 22 74 34 115 12 41 25 89 31 106 5 17 9 40 9 52 0 11 4
23 9 26 5 3 11 20 14 38 7 40 31 139 62 253 9 33 21 80 27 105 5 25 14 63 20
85 16 70 46 204 58 265 12 59 19 92 36 170 8 36 19 83 23 105 5 22 14 66 20
98 26 137 35 169 50 175 9 3 18 8 21 12 5 6 114 81 480 332 69 47 145 100 170
117 25 17 77 53 115 79 39 26 76 53 83 59 7 7 17 13 22 13 5 0 15 6 22 13 13
12 99 70 347 236 69 46 128 86 131 90 7 9 119 81 125 81 3 0 20 -30 38 -67 32
-65 142 -242 183 -293 106 -133 324 -332 431 -393 87 -49 245 -127 259 -127 8
0 22 -4 32 -9 33 -17 67 -30 92 -34 14 -3 61 -14 105 -25 155 -39 212 -44 445
-39 153 3 250 9 305 20 96 20 205 51 273 78 12 5 32 13 45 18 90 35 279 136
285 152 2 5 8 9 13 9 6 0 54 32 107 72 99 74 286 253 357 343 22 28 43 52 46
55 9 8 110 158 147 220 31 51 135 260 152 305 4 11 12 31 18 45 6 14 16 43 23
65 7 22 17 44 21 50 4 5 8 16 8 24 0 8 11 51 24 95 14 45 31 103 38 129 15 56
10 54 163 62 148 7 365 31 480 54 28 5 77 14 110 20 33 5 77 15 98 21 46 14
63 4 72 -43 8 -39 54 -186 66 -209 5 -10 9 -27 9 -38 0 -11 4 -28 9 -38 11
-22 24 -53 52 -127 31 -84 170 -363 208 -418 17 -25 31 -50 31 -56 0 -6 5 -11
10 -11 6 0 10 -6 10 -12 0 -7 10 -25 23 -40 12 -15 47 -61 77 -102 30 -42 118
-138 195 -214 178 -174 312 -270 515 -368 151 -73 300 -120 465 -146 79 -13
526 -16 595 -4 73 12 213 54 280 83 91 39 114 53 192 114 46 36 63 53 136 139
26 30 50 57 55 58 4 2 7 8 7 12 0 5 10 24 22 42 22 32 100 188 119 236 5 12
13 32 18 45 21 53 49 144 72 240 5 20 13 54 19 75 5 20 12 57 15 82 4 25 10
68 15 95 4 28 13 79 19 115 6 36 18 103 26 150 9 47 21 112 26 145 19 127 30
192 40 250 5 33 14 87 19 120 5 33 14 85 19 115 6 30 15 82 20 115 5 33 17 98
26 145 16 84 25 132 46 260 6 36 15 89 20 118 41 237 31 215 98 208 81 -7 130
-17 137 -27 3 -5 12 -9 21 -9 28 0 163 -70 222 -115 50 -38 151 -139 191 -191
35 -44 150 -213 150 -219 0 -4 8 -19 19 -33 10 -15 44 -76 76 -137 32 -60 62
-114 66 -120 5 -5 9 -17 9 -26 0 -10 3 -19 8 -21 9 -4 26 -37 174 -333 261
-524 268 -538 352 -678 25 -43 46 -81 46 -84 0 -6 139 -209 163 -239 9 -10 39
-50 68 -89 66 -88 214 -241 299 -308 36 -29 67 -55 68 -59 2 -5 9 -8 16 -8 7
0 21 -8 32 -17 34 -31 166 -101 254 -136 25 -10 53 -22 62 -28 10 -5 25 -9 33
-9 8 0 23 -4 33 -9 27 -14 167 -49 288 -70 78 -14 477 -14 563 0 57 9 212 39
291 55 14 3 34 9 45 14 11 4 40 14 65 21 25 7 49 16 55 21 5 4 17 8 26 8 30 0
327 154 349 181 3 3 14 11 25 17 23 11 267 203 340 266 17 14 33 26 37 26 4 0
26 -23 50 -52 160 -192 367 -344 603 -443 22 -9 48 -21 57 -26 10 -5 27 -9 37
-9 11 0 22 -4 25 -9 3 -5 20 -11 38 -14 18 -3 51 -10 73 -16 120 -34 209 -44
430 -48 148 -3 250 -1 285 7 199 40 364 91 465 142 230 117 358 210 545 397
197 198 335 400 460 676 25 55 85 220 100 275 6 25 16 53 21 62 5 10 9 29 9
42 0 14 5 28 10 31 6 3 10 21 10 39 0 54 20 64 150 70 131 6 260 19 374 35
107 16 111 14 100 -57 -20 -143 7 -635 37 -666 5 -6 9 -21 9 -33 0 -28 44
-171 70 -228 73 -160 110 -231 161 -305 55 -81 179 -210 264 -276 38 -29 161
-104 171 -104 2 0 23 -9 47 -19 135 -63 236 -82 450 -88 176 -5 207 0 359 48
75 24 83 27 173 70 143 69 274 177 372 307 30 39 59 72 65 72 6 0 8 -16 4 -42
-4 -24 -11 -72 -16 -108 -6 -36 -13 -92 -16 -125 -3 -33 -11 -67 -18 -75 -13
-17 -67 -64 -116 -100 -40 -30 -148 -116 -209 -168 -24 -20 -54 -44 -65 -52
-52 -36 -357 -296 -486 -415 -42 -38 -115 -104 -161 -145 -128 -115 -472 -457
-582 -579 -102 -113 -296 -354 -325 -403 -9 -15 -20 -28 -24 -28 -4 0 -8 -5
-8 -11 0 -5 -20 -39 -45 -75 -25 -35 -45 -68 -45 -74 0 -5 -4 -10 -9 -10 -5 0
-11 -8 -15 -17 -5 -17 -16 -37 -62 -113 -52 -86 -184 -361 -184 -384 0 -7 -7
-21 -15 -32 -8 -10 -15 -29 -15 -41 0 -12 -4 -25 -10 -28 -5 -3 -10 -17 -10
-30 0 -13 -4 -27 -10 -30 -5 -3 -10 -19 -10 -35 0 -16 -4 -31 -9 -34 -5 -3
-11 -20 -14 -38 -3 -18 -10 -55 -16 -83 -38 -185 -54 -420 -39 -545 32 -265
117 -441 298 -621 130 -129 296 -219 480 -261 93 -21 276 -30 401 -20 223 18
354 61 565 184 255 149 514 440 729 823 42 75 141 270 157 310 9 23 35 81 58
130 23 50 46 100 51 113 14 34 23 57 74 187 26 66 51 128 56 137 5 10 9 25 9
33 0 8 4 23 10 33 5 9 19 46 31 82 11 36 36 108 54 160 17 52 38 115 45 140 7
25 16 54 20 65 4 11 13 40 20 65 24 85 33 115 41 135 4 11 10 31 14 45 7 30
53 200 67 250 15 56 29 113 34 145 3 17 9 39 14 50 5 11 11 34 13 50 3 17 17
77 32 135 26 104 37 149 55 243 6 26 14 68 20 95 5 26 14 70 19 97 6 28 14 70
20 95 5 25 14 72 20 105 28 154 51 246 63 258 7 8 24 20 38 27 13 7 29 17 34
22 31 25 368 248 376 248 6 0 10 4 10 8 0 5 12 15 28 23 15 8 29 17 32 20 3 3
37 27 75 52 39 26 104 71 145 100 41 29 140 97 220 152 80 54 200 136 268 183
101 69 125 82 137 72 8 -7 15 -19 15 -27 0 -8 6 -27 14 -41 7 -15 33 -67 57
-117 45 -95 111 -204 156 -258 49 -58 193 -196 236 -225 108 -74 261 -138 410
-171 62 -14 344 -14 404 0 67 15 216 61 228 70 6 4 37 22 70 40 33 17 76 46
95 63 20 17 49 42 66 56 89 75 202 234 272 385 59 127 65 138 80 143 11 3 12
-6 5 -44 -25 -150 16 -383 88 -500 30 -48 114 -134 132 -134 5 0 21 -8 35 -18
73 -51 180 -72 360 -72 184 1 292 22 364 72 14 10 31 18 36 18 20 0 101 92
130 149 63 118 72 184 82 576 17 623 50 1078 105 1405 9 52 21 127 26 165 26
182 31 215 59 383 5 31 13 84 19 117 5 33 17 101 26 150 48 258 79 571 68 690
-16 181 -127 307 -309 350 -66 16 -302 20 -350 6 -17 -5 -68 -10 -113 -12
l-83 -4 -15 50 c-27 90 -56 159 -85 202 -26 38 -45 51 -123 83 -72 30 -439 12
-602 -29 -24 -6 -60 -15 -80 -20 -60 -14 -177 -55 -255 -90 -26 -12 -52 -21
-56 -21 -13 0 -209 -108 -259 -141 -23 -16 -44 -29 -47 -29 -9 0 -88 -57 -208
-148 -62 -48 -265 -231 -287 -258 -10 -13 -49 -57 -86 -98 -150 -168 -306
-398 -423 -626 -44 -85 -83 -166 -87 -180 -4 -14 -16 -45 -27 -70 -28 -62 -51
-119 -68 -165 -53 -139 -120 -431 -139 -600 -4 -38 -11 -77 -15 -85 -3 -8 -63
-53 -133 -100 -127 -86 -188 -130 -433 -309 -74 -55 -166 -123 -205 -151 -38
-28 -77 -56 -85 -63 -8 -7 -51 -39 -95 -72 -44 -33 -86 -65 -93 -72 -8 -7 -22
-18 -33 -23 -25 -14 -34 7 -25 53 7 30 18 101 31 192 3 22 10 65 15 95 5 30
21 125 34 210 14 85 28 173 31 195 4 22 11 66 16 98 14 91 26 167 39 242 6 39
16 95 21 125 5 30 13 87 19 125 16 115 28 185 46 270 9 44 20 107 25 140 9 65
23 159 39 258 5 34 14 91 19 127 6 36 15 94 20 130 6 36 15 101 21 145 6 44
15 96 20 115 6 19 10 88 10 152 0 99 -4 127 -24 183 -13 37 -35 78 -48 92 -27
29 -106 68 -163 79 -91 19 -559 3 -582 -20 -12 -12 -43 27 -43 56 0 15 -4 36
-9 46 -6 9 -18 39 -27 65 -26 72 -67 130 -105 148 -72 34 -87 38 -169 43 -139
10 -475 -24 -545 -54 -11 -5 -31 -11 -45 -13 -23 -4 -175 -56 -225 -77 -38
-15 -230 -111 -275 -136 -181 -105 -355 -238 -525 -403 -122 -118 -200 -204
-281 -310 -66 -86 -184 -256 -184 -265 0 -4 -15 -30 -33 -59 -18 -29 -36 -59
-40 -67 -4 -8 -28 -55 -55 -105 -43 -81 -51 -91 -87 -103 -49 -16 -147 -36
-305 -61 -30 -5 -86 -14 -125 -21 -38 -6 -106 -15 -150 -20 -44 -5 -106 -12
-137 -16 -57 -7 -58 -7 -58 19 0 14 -4 47 -10 74 -5 26 -17 84 -26 128 -8 44
-19 94 -24 110 -5 17 -14 50 -21 75 -17 66 -59 188 -82 240 -46 106 -124 258
-154 301 -18 26 -33 51 -33 57 0 6 -3 12 -7 14 -5 2 -28 30 -52 63 -185 250
-362 396 -608 501 -136 58 -250 88 -413 111 -85 11 -395 8 -490 -5 -47 -7
-105 -15 -130 -18 -25 -3 -49 -10 -55 -15 -5 -5 -24 -9 -41 -9 -18 0 -35 -4
-38 -9 -3 -4 -20 -11 -38 -15 -31 -6 -84 -25 -183 -65 -77 -31 -227 -112 -303
-163 -192 -129 -323 -249 -497 -459 -92 -110 -249 -382 -304 -524 -13 -33 -27
-69 -32 -80 -12 -28 -74 -221 -88 -275 -7 -25 -17 -59 -22 -76 -5 -17 -9 -44
-9 -62 0 -17 -4 -34 -10 -37 -5 -3 -10 -30 -10 -60 0 -30 -5 -57 -10 -60 -5
-3 -10 -28 -10 -54 0 -26 -4 -72 -9 -102 -15 -83 -21 -400 -11 -529 9 -106 21
-212 36 -300 5 -33 2 -39 -48 -85 -147 -135 -307 -226 -483 -273 -141 -38
-318 -34 -450 10 -196 66 -333 175 -495 391 -34 45 -68 90 -76 100 -8 9 -14
19 -14 22 0 2 -25 43 -55 90 -30 46 -55 89 -55 95 0 5 -4 10 -10 10 -5 0 -10
9 -10 20 0 11 -3 20 -7 20 -5 0 -13 10 -19 23 -6 12 -40 81 -76 152 -36 72
-98 195 -137 275 -39 80 -77 156 -85 170 -21 34 -119 199 -137 230 -7 14 -16
27 -19 30 -3 3 -27 34 -53 70 -66 92 -79 108 -139 171 -60 63 -176 159 -216
180 -15 8 -29 17 -32 20 -8 9 -220 109 -275 129 -11 4 -33 13 -48 19 -15 6
-36 11 -45 11 -9 0 -23 4 -31 9 -22 14 4 41 40 41 15 0 31 5 34 10 3 6 17 10
30 10 22 0 42 6 100 31 11 5 54 20 95 34 41 15 84 30 95 34 11 5 31 13 45 18
14 6 37 15 53 22 15 6 37 15 50 20 93 37 336 167 431 230 38 25 77 51 85 56
20 13 124 89 176 129 145 112 360 336 483 502 58 80 168 258 196 319 60 130
75 166 96 220 13 33 27 64 32 69 4 6 8 20 8 32 0 13 4 25 9 28 8 6 13 20 31
101 5 22 13 58 19 80 44 182 59 286 68 465 7 139 -25 429 -64 570 -9 30 -18
70 -20 88 -3 18 -9 35 -14 38 -5 3 -9 16 -9 29 0 13 -4 27 -10 30 -5 3 -10 13
-10 20 0 22 -91 217 -149 320 -59 103 -201 284 -288 365 -160 151 -298 246
-551 379 -9 5 -34 16 -54 25 -21 9 -55 23 -75 32 -63 27 -76 32 -138 55 -33
12 -75 25 -92 30 -31 9 -54 15 -140 40 -21 6 -57 15 -80 20 -144 31 -191 39
-323 58 -41 6 -95 15 -120 20 -125 27 -691 34 -965 13 -183 -14 -361 -38 -535
-72 -30 -6 -73 -13 -95 -16 -22 -3 -49 -9 -60 -14 -11 -4 -42 -14 -70 -20 -44
-11 -142 -38 -260 -72 -22 -6 -44 -15 -49 -20 -6 -4 -20 -8 -32 -8 -13 0 -26
-4 -29 -10 -3 -5 -17 -10 -30 -10 -13 0 -27 -4 -30 -10 -3 -5 -16 -10 -29 -10
-12 0 -26 -4 -32 -8 -5 -5 -52 -26 -104 -48 -91 -37 -291 -135 -375 -184 -22
-13 -60 -34 -85 -47 -50 -26 -221 -134 -242 -152 -7 -7 -56 -42 -108 -79 -52
-36 -111 -81 -130 -98 -19 -18 -48 -43 -65 -56 -68 -52 -314 -290 -366 -353
-13 -17 -49 -59 -80 -95 -67 -77 -70 -82 -151 -188 -35 -46 -68 -92 -74 -102
-6 -11 -18 -28 -27 -38 -10 -10 -17 -21 -17 -25 0 -3 -20 -35 -45 -70 -25 -36
-45 -69 -45 -75 0 -6 -4 -12 -8 -14 -5 -1 -26 -34 -48 -71 -21 -38 -48 -83
-58 -100 -84 -139 -154 -283 -241 -497 -26 -63 -53 -128 -60 -145 -7 -16 -19
-48 -26 -70 -7 -22 -17 -44 -21 -50 -4 -5 -8 -19 -8 -32 0 -13 -4 -31 -10 -41
-12 -22 -70 -196 -82 -247 -13 -56 -38 -156 -57 -230 -13 -47 -36 -151 -55
-250 -8 -38 -17 -83 -21 -100 -4 -16 -11 -59 -15 -95 -5 -36 -14 -101 -20
-145 -7 -44 -16 -118 -20 -165 -5 -47 -13 -130 -19 -185 -16 -150 -30 -449
-31 -641 0 -125 -3 -174 -12 -181 -13 -10 -76 -27 -138 -38 -144 -25 -362 -56
-496 -71 -76 -8 -68 -26 -100 221 -3 22 -9 49 -14 60 -5 11 -11 34 -15 50 -26
124 -26 124 -65 230 -101 274 -265 540 -440 715 -101 101 -318 260 -354 260
-9 0 -16 5 -16 10 0 6 -7 10 -15 10 -8 0 -23 4 -33 9 -87 45 -207 86 -297 103
-208 39 -553 43 -710 8 -114 -25 -182 -43 -197 -51 -10 -5 -29 -9 -42 -9 -14
0 -28 -4 -31 -10 -3 -5 -15 -10 -26 -10 -10 0 -27 -4 -37 -9 -9 -5 -28 -13
-42 -19 -60 -24 -225 -107 -228 -114 -2 -4 -7 -8 -12 -8 -11 0 -150 -85 -210
-129 -70 -50 -220 -189 -280 -260 -30 -35 -64 -73 -75 -85 -77 -79 -281 -422
-336 -563 -5 -13 -13 -33 -18 -45 -34 -87 -41 -107 -52 -143 -7 -22 -17 -44
-21 -49 -4 -6 -8 -22 -8 -37 0 -15 -4 -31 -10 -34 -6 -3 -10 -19 -10 -35 0
-16 -4 -31 -9 -34 -5 -3 -11 -23 -14 -43 -3 -21 -12 -72 -21 -113 -36 -165
-45 -252 -62 -585 -6 -124 -8 -131 -33 -152 -14 -13 -31 -23 -38 -23 -6 0 -13
-4 -15 -9 -1 -4 -54 -44 -117 -87 -62 -44 -125 -88 -141 -99 -63 -46 -406
-289 -440 -313 -49 -33 -115 -83 -190 -142 -89 -70 -151 -111 -162 -104 -10 6
-9 23 12 169 4 33 13 95 19 138 6 44 13 86 16 96 5 16 16 92 35 239 13 97 29
213 41 292 34 230 53 368 78 564 6 49 14 92 16 96 2 4 10 47 16 96 6 49 16
121 21 159 5 39 11 145 14 236 5 139 3 175 -11 215 -42 123 -122 204 -257 256
-52 20 -67 20 -1051 21 -644 0 -1006 -4 -1020 -10 -55 -25 -134 -64 -152 -75
-57 -37 -155 -166 -155 -204 0 -8 -4 -22 -9 -32 -24 -48 -31 -101 -31 -237 0
-136 7 -189 31 -237 5 -10 9 -27 9 -38 0 -11 4 -20 9 -20 5 0 14 -13 21 -29
16 -39 94 -111 150 -139 121 -60 165 -64 748 -69 403 -3 522 -6 522 -16 0 -6
-7 -70 -16 -142 -9 -71 -20 -170 -25 -220 -6 -49 -14 -126 -19 -170 -36 -306
-46 -405 -55 -495 -9 -100 -12 -108 -48 -124 -51 -23 -215 -83 -292 -107 -38
-12 -78 -25 -87 -30 -10 -5 -29 -9 -42 -9 -14 0 -27 -4 -30 -9 -3 -5 -20 -11
-38 -14 -18 -3 -51 -10 -73 -15 -294 -70 -399 -83 -740 -89 -362 -6 -514 9
-850 89 -22 5 -55 12 -73 15 -18 3 -35 9 -38 14 -3 5 -16 9 -29 9 -13 0 -27 5
-30 10 -3 6 -16 10 -29 10 -12 0 -26 3 -29 7 -4 3 -28 14 -54 23 -79 29 -260
118 -336 167 -193 122 -346 258 -477 423 -28 36 -58 73 -66 83 -9 11 -23 33
-33 50 -10 18 -33 57 -52 87 -56 89 -141 272 -175 380 -8 25 -19 54 -23 65 -8
19 -17 51 -41 143 -21 82 -38 179 -72 412 -8 56 -12 203 -11 430 0 333 9 469
43 700 5 36 12 85 15 110 4 25 11 68 16 95 5 28 14 73 19 100 10 57 24 122 39
180 6 22 14 58 19 80 11 48 51 173 63 197 5 10 9 26 9 36 0 10 4 22 8 28 4 5
14 27 21 49 7 22 16 49 21 60 4 11 16 40 25 65 37 98 162 353 227 459 21 34
38 67 38 72 0 5 5 9 10 9 6 0 10 5 10 11 0 15 99 155 194 274 89 111 229 255
321 331 33 27 62 52 65 55 8 10 227 159 234 159 3 0 29 15 58 33 92 58 381
187 420 187 9 0 19 4 22 9 3 5 18 11 33 14 16 3 48 11 73 17 155 38 221 48
445 62 183 11 385 3 515 -22 30 -6 70 -13 88 -17 18 -3 35 -9 38 -14 3 -5 14
-9 25 -9 10 0 27 -4 37 -9 9 -5 40 -19 67 -31 275 -119 438 -445 402 -805 -9
-89 -22 -167 -59 -355 -8 -42 -22 -145 -35 -265 -10 -91 33 -224 99 -306 29
-37 118 -99 178 -126 120 -53 340 -63 485 -20 50 14 155 69 191 99 120 101
225 259 274 413 7 22 16 48 21 57 5 10 9 28 9 41 0 13 4 27 9 33 5 5 12 29 15
54 4 25 11 74 16 110 26 181 33 361 22 528 -7 92 -16 190 -21 217 -5 28 -12
70 -16 95 -4 25 -10 54 -14 65 -18 44 -31 92 -31 111 0 11 -4 24 -8 29 -4 6
-14 28 -21 50 -38 113 -137 289 -240 429 -108 145 -336 342 -494 425 -28 15
-61 32 -72 38 -11 6 -36 18 -55 26 -152 65 -184 77 -196 77 -8 0 -22 4 -32 9
-9 5 -37 15 -62 21 -25 7 -56 16 -70 20 -14 4 -52 13 -85 20 -33 6 -87 18
-120 25 -65 15 -113 21 -275 36 -139 12 -563 23 -572 14z m12137 -1025 c39 -4
115 -11 170 -15 55 -3 108 -9 119 -12 10 -3 41 -9 70 -14 28 -4 74 -13 101
-19 28 -6 65 -14 83 -17 18 -3 35 -9 38 -14 3 -5 16 -9 30 -9 13 0 32 -4 42
-9 9 -5 28 -13 42 -18 191 -72 407 -228 532 -383 36 -46 118 -176 118 -189 0
-4 9 -27 21 -50 85 -177 117 -429 90 -711 -11 -113 -23 -183 -40 -242 -6 -21
-15 -53 -20 -70 -4 -18 -14 -46 -21 -63 -7 -16 -16 -39 -20 -50 -33 -89 -146
-294 -199 -357 -122 -150 -143 -172 -246 -267 -74 -67 -238 -183 -295 -208 -8
-4 -17 -9 -20 -12 -8 -10 -198 -101 -210 -101 -5 0 -18 -4 -28 -9 -30 -15 -66
-29 -107 -42 -22 -6 -49 -15 -60 -19 -11 -4 -49 -16 -85 -25 -36 -9 -76 -21
-90 -25 -14 -5 -50 -11 -80 -15 -30 -4 -82 -11 -115 -16 -108 -17 -186 -22
-195 -13 -9 10 0 92 25 214 21 104 35 182 66 365 5 33 12 83 15 110 3 28 10
54 15 59 5 6 9 26 9 45 0 19 4 48 9 65 11 36 26 117 53 276 10 63 23 138 29
165 10 51 17 89 40 225 7 41 13 122 13 180 -2 271 -88 394 -328 465 -50 15
-84 17 -230 12 -165 -6 -207 -13 -320 -52 -95 -33 -193 -100 -252 -172 -21
-27 -41 -50 -44 -53 -5 -5 -19 -29 -49 -84 -9 -17 -25 -56 -35 -86 -10 -30
-23 -59 -27 -64 -5 -6 -9 -27 -9 -47 0 -21 -4 -40 -9 -43 -5 -3 -11 -29 -15
-58 -5 -49 -11 -85 -35 -208 -5 -25 -14 -72 -20 -105 -6 -33 -18 -96 -26 -140
-9 -44 -20 -107 -26 -140 -5 -33 -14 -85 -20 -115 -5 -30 -14 -80 -19 -110 -5
-30 -14 -82 -20 -115 -6 -33 -15 -85 -19 -115 -5 -30 -14 -84 -20 -120 -6 -36
-15 -94 -20 -130 -5 -36 -14 -78 -20 -93 -6 -16 -11 -48 -11 -71 0 -24 -6 -48
-13 -54 -7 -6 -79 -13 -167 -15 -85 -2 -171 -8 -190 -12 -53 -12 -161 -70
-206 -112 -45 -41 -104 -123 -104 -145 0 -8 -4 -18 -9 -23 -29 -32 -41 -213
-20 -303 32 -141 120 -263 219 -304 25 -11 54 -23 65 -28 25 -10 146 -30 205
-33 41 -2 45 -4 43 -27 -3 -27 -16 -111 -33 -202 -5 -32 -14 -82 -19 -110 -5
-29 -14 -80 -20 -113 -5 -33 -17 -98 -27 -145 -20 -103 -40 -217 -64 -360 -5
-30 -14 -82 -20 -115 -6 -33 -15 -85 -20 -115 -23 -137 -50 -276 -72 -365 -5
-22 -12 -52 -15 -68 -3 -15 -9 -30 -14 -33 -5 -3 -9 -14 -9 -25 0 -10 -4 -27
-9 -37 -5 -9 -16 -33 -25 -53 -21 -50 -91 -126 -134 -146 -26 -13 -60 -18
-112 -17 -65 0 -83 5 -135 34 -33 18 -71 42 -84 54 -48 42 -167 184 -190 227
-54 98 -108 206 -120 239 -18 48 -32 82 -42 102 -5 10 -9 25 -9 33 0 8 -4 23
-9 33 -9 16 -44 129 -63 202 -21 78 -42 185 -58 300 -31 209 -34 274 -33 715
0 427 7 598 33 805 5 41 14 113 19 160 6 47 15 110 20 140 6 30 14 80 19 110
13 73 52 239 63 268 5 13 9 36 9 52 0 16 5 32 10 35 6 3 10 19 10 35 0 16 5
32 10 35 6 3 10 19 10 35 0 16 5 32 10 35 6 3 10 17 10 31 0 13 4 32 9 42 4 9
16 40 26 67 37 108 57 161 67 185 11 25 21 51 36 93 20 53 171 350 219 431 29
49 53 91 53 94 0 8 164 237 181 252 3 3 30 37 61 75 67 85 274 296 343 351 71
56 72 57 161 123 45 34 84 61 88 61 5 0 20 9 36 20 59 42 179 104 365 189 105
48 281 111 312 111 12 0 24 4 27 9 3 5 20 11 38 14 18 3 56 11 83 17 28 6 70
14 95 17 25 3 49 9 54 14 6 5 30 9 55 9 26 0 66 5 91 11 40 10 349 35 455 37
22 1 72 -3 110 -8z m10507 -3435 c-11 -109 -14 -132 -21 -150 -5 -11 -16 -56
-25 -100 -8 -44 -18 -93 -21 -110 -4 -16 -10 -55 -16 -85 -5 -30 -14 -80 -19
-110 -26 -138 -31 -168 -36 -215 -3 -27 -9 -59 -14 -70 -5 -11 -11 -38 -14
-60 -3 -22 -9 -62 -15 -90 -5 -27 -14 -78 -19 -112 -6 -34 -13 -67 -16 -72 -4
-5 -8 -27 -10 -48 -1 -21 -8 -61 -14 -88 -6 -28 -16 -77 -22 -110 -6 -33 -15
-79 -20 -103 -6 -23 -10 -58 -10 -77 0 -18 -4 -37 -10 -40 -5 -3 -10 -17 -10
-30 0 -13 -7 -50 -16 -82 -8 -32 -22 -83 -29 -115 -34 -137 -144 -369 -225
-473 -78 -101 -222 -225 -260 -225 -6 0 -18 -4 -28 -9 -44 -23 -134 -35 -178
-23 -24 7 -55 12 -67 12 -39 0 -126 50 -181 104 -54 53 -116 165 -116 208 0
13 -4 28 -10 34 -5 5 -12 77 -16 159 -7 187 9 398 46 585 6 30 13 71 16 90 3
19 9 44 13 55 5 11 26 74 47 140 21 66 41 127 45 135 4 8 15 33 24 55 10 22
23 53 31 69 8 16 14 32 14 37 0 4 17 38 39 76 21 37 48 85 59 106 34 63 134
206 183 261 26 28 64 72 85 98 22 25 53 57 69 69 17 13 50 42 75 65 118 111
403 254 507 254 15 0 35 5 43 10 8 6 44 9 80 8 l65 -3 -3 -30z m4398 -12 c0
-26 -4 -60 -10 -77 -5 -17 -21 -94 -35 -171 -14 -77 -28 -149 -31 -160 -3 -11
-10 -47 -15 -80 -5 -33 -14 -84 -19 -112 -6 -29 -14 -77 -20 -105 -5 -29 -14
-78 -20 -108 -6 -30 -15 -77 -19 -105 -14 -82 -29 -156 -46 -230 -9 -38 -21
-89 -26 -112 -8 -40 -13 -63 -38 -175 -23 -104 -39 -161 -76 -278 -15 -47 -30
-98 -35 -115 -9 -34 -17 -59 -32 -95 -6 -14 -14 -34 -18 -45 -48 -130 -140
-307 -187 -361 -14 -16 -41 -49 -61 -72 -113 -138 -276 -205 -427 -178 -93 17
-206 105 -249 193 -10 21 -22 46 -27 55 -5 10 -9 27 -9 37 0 11 -4 22 -9 25
-35 22 -32 526 4 701 3 17 10 55 16 85 17 90 30 141 55 220 13 41 29 91 35
110 11 36 17 52 39 105 7 17 16 39 20 50 27 70 140 288 153 293 4 2 7 8 7 14
0 14 118 181 172 243 83 96 204 213 278 269 101 76 282 165 395 194 96 25 123
30 178 31 l57 1 0 -47z m-21465 -125 c-13 -73 -11 -477 2 -543 7 -33 15 -76
18 -95 4 -19 10 -44 15 -55 5 -11 20 -54 35 -95 38 -107 101 -232 164 -325 63
-93 212 -250 282 -297 27 -18 50 -38 53 -44 11 -27 -58 -319 -84 -359 -4 -5
-17 -37 -30 -70 -13 -33 -40 -86 -60 -118 -19 -32 -40 -67 -47 -79 -22 -40
-135 -158 -181 -190 -26 -17 -49 -35 -52 -39 -10 -15 -136 -69 -194 -84 -84
-22 -258 -20 -322 4 -102 37 -150 67 -229 146 -101 100 -122 128 -175 230 -22
43 -40 94 -80 230 -5 17 -17 75 -26 130 -19 121 -22 496 -5 625 17 128 41 253
52 272 5 10 9 31 9 47 0 17 5 33 10 36 6 3 10 17 10 30 0 13 5 27 10 30 6 3
10 14 10 23 0 30 107 235 159 302 49 65 122 138 194 195 21 17 44 35 50 40 12
10 44 26 95 46 15 6 35 15 44 20 10 5 30 9 45 9 16 0 35 5 43 10 8 5 55 10
104 10 l88 0 -7 -42z m12296 -28 c-1 -36 -7 -84 -13 -107 -11 -45 -6 -212 11
-343 39 -309 186 -609 403 -823 55 -54 117 -110 139 -124 39 -25 40 -29 36
-67 -6 -47 -21 -114 -36 -168 -6 -21 -15 -53 -20 -70 -4 -18 -23 -69 -42 -113
-79 -190 -178 -332 -284 -410 -22 -17 -46 -36 -53 -42 -21 -20 -149 -82 -195
-95 -71 -20 -279 -22 -333 -3 -207 70 -399 279 -463 505 -7 25 -17 55 -22 68
-5 13 -9 36 -9 52 0 16 -4 32 -10 35 -5 3 -10 25 -10 48 0 23 -7 80 -15 127
-17 97 -19 308 -4 420 5 41 14 109 19 150 29 225 65 355 140 515 112 235 316
430 505 482 22 7 56 16 75 21 19 6 68 10 109 9 l75 -2 -3 -65z m4091 -4385
c-2 -22 -8 -44 -12 -50 -4 -5 -10 -28 -13 -50 -7 -51 -17 -95 -57 -255 -5 -22
-14 -57 -19 -77 -14 -55 -47 -180 -65 -243 -8 -30 -18 -66 -21 -80 -4 -14 -10
-34 -15 -45 -4 -11 -29 -87 -55 -170 -25 -82 -50 -159 -54 -170 -5 -11 -14
-38 -20 -60 -7 -22 -16 -49 -21 -60 -11 -27 -59 -149 -80 -206 -70 -187 -225
-471 -334 -614 -97 -126 -199 -205 -289 -225 -44 -10 -61 -9 -111 5 -160 47
-219 201 -191 498 4 42 12 80 16 83 5 3 9 20 9 39 0 19 5 37 10 40 6 3 10 17
10 31 0 13 4 32 9 42 5 9 22 49 36 87 33 85 156 327 190 371 14 18 25 35 25
39 0 10 81 126 139 200 31 38 63 78 71 89 155 198 417 466 770 785 57 51 76
50 72 -4z m-21055 -27 c-3 -29 -10 -75 -17 -103 -6 -27 -15 -70 -20 -95 -5
-25 -13 -63 -19 -85 -5 -22 -24 -98 -41 -170 -18 -71 -36 -139 -41 -150 -7
-19 -10 -31 -24 -115 -4 -19 -10 -44 -15 -55 -4 -11 -13 -40 -20 -65 -7 -25
-27 -90 -45 -145 -17 -55 -42 -134 -55 -175 -21 -72 -28 -92 -49 -142 -5 -13
-24 -61 -41 -107 -72 -194 -183 -413 -283 -561 -183 -269 -361 -368 -519 -289
-63 32 -86 61 -128 164 -9 22 -24 142 -23 190 0 50 13 168 23 205 41 167 69
243 151 410 74 151 174 313 268 435 25 33 48 62 51 65 3 3 24 28 45 55 105
132 347 384 540 561 209 192 245 223 258 224 5 0 7 -24 4 -52z"/>
</g>
</svg>
