<?xml version="1.0" standalone="no"?>
<!DOCTYPE svg PUBLIC "-//W3C//DTD SVG 20010904//EN"
 "http://www.w3.org/TR/2001/REC-SVG-20010904/DTD/svg10.dtd">
<svg version="1.0" xmlns="http://www.w3.org/2000/svg"
 width="1080.000000pt" height="354.000000pt" viewBox="0 0 1080.000000 354.000000"
 preserveAspectRatio="xMidYMid meet">

<g transform="translate(0.000000,354.000000) scale(0.100000,-0.100000)"
fill="#000000" stroke="none">
<path d="M1893 3356 c-473 -90 -808 -474 -882 -1011 -17 -121 -15 -358 4 -450
69 -332 297 -563 640 -650 121 -31 315 -43 421 -26 64 10 203 47 247 66 13 6
17 2 17 -16 0 -18 -25 -44 -106 -108 -219 -174 -405 -372 -486 -520 -70 -126
-95 -281 -62 -390 21 -72 90 -141 163 -166 77 -25 198 -17 266 17 147 75 254
238 359 547 40 117 97 329 128 480 15 73 -6 55 285 254 l142 97 20 -38 c71
-139 233 -232 401 -232 134 1 229 41 335 142 78 73 134 165 165 267 l16 55
119 17 c66 10 123 18 126 18 3 1 12 -25 19 -56 60 -272 218 -473 427 -544 55
-19 89 -24 178 -24 134 0 198 19 263 79 95 87 119 152 167 441 48 287 43 267
65 255 31 -16 74 -87 184 -299 139 -269 194 -340 319 -415 141 -84 371 -88
541 -8 70 33 196 131 256 199 l40 46 48 -45 c93 -87 196 -128 322 -128 134 1
229 41 336 142 77 74 141 179 164 271 7 26 15 49 19 51 3 2 39 7 79 11 l72 7
0 -63 c1 -186 72 -324 198 -386 49 -24 69 -28 142 -28 75 0 91 3 138 29 29 17
66 45 82 63 16 18 31 33 33 33 13 0 -16 -95 -33 -107 -72 -51 -273 -229 -366
-325 -125 -130 -200 -236 -246 -353 -29 -73 -32 -90 -33 -190 0 -123 13 -162
77 -221 53 -51 95 -67 184 -72 134 -7 229 38 327 155 120 143 265 538 327 891
l13 73 185 125 c101 69 185 124 187 122 1 -2 14 -25 28 -53 31 -61 84 -118
140 -147 60 -32 194 -32 253 -1 48 25 95 76 126 136 l22 42 7 -63 c7 -74 31
-112 80 -129 48 -17 122 -16 167 2 66 27 75 54 83 260 7 179 22 318 59 534 11
62 20 140 20 172 0 51 -4 63 -29 91 -29 32 -31 33 -114 32 l-84 0 -19 40 c-23
49 -53 59 -139 50 -194 -21 -388 -157 -505 -353 -48 -81 -98 -217 -107 -291
-6 -48 -8 -52 -72 -97 -36 -26 -101 -73 -144 -106 -43 -32 -81 -57 -84 -54 -3
3 18 147 45 319 66 404 65 401 57 438 -10 46 -58 64 -150 57 l-71 -6 -19 41
c-15 31 -28 45 -50 50 -39 11 -135 0 -211 -23 -134 -41 -306 -190 -389 -336
l-40 -71 -70 -12 c-38 -6 -85 -12 -104 -13 l-34 -2 -14 68 c-37 179 -151 323
-292 367 -70 22 -196 26 -271 9 -67 -15 -160 -64 -217 -114 -106 -93 -193
-264 -209 -412 l-6 -64 -117 -118 c-124 -126 -176 -161 -241 -161 -87 0 -142
58 -244 258 -64 126 -141 242 -174 262 -20 12 -16 16 79 70 84 47 212 169 269
256 125 191 145 450 49 651 -47 100 -158 207 -269 262 -134 65 -216 83 -422
88 -197 6 -318 -8 -457 -53 -411 -134 -702 -483 -801 -963 -11 -53 -25 -160
-32 -237 l-12 -142 -70 -12 c-39 -6 -86 -12 -105 -13 l-34 -2 -14 68 c-37 179
-151 323 -292 367 -70 22 -196 26 -271 9 -233 -53 -409 -289 -428 -572 l-7
-98 -150 -108 c-92 -67 -151 -103 -153 -95 -2 7 13 123 32 257 45 307 46 346
7 389 l-29 33 -281 3 c-308 3 -330 0 -368 -56 -26 -40 -25 -151 3 -189 32 -43
73 -52 237 -52 136 -1 148 -2 143 -18 -2 -10 -10 -72 -17 -138 -7 -66 -16
-129 -20 -141 -5 -16 -29 -28 -91 -47 -118 -38 -217 -50 -333 -44 -252 15
-428 117 -518 299 -55 111 -70 190 -70 353 1 319 84 556 258 730 129 130 262
188 435 189 147 0 220 -33 262 -119 26 -52 28 -95 12 -197 -19 -120 -14 -158
27 -192 36 -31 83 -41 147 -31 37 5 55 15 87 49 51 53 75 123 82 241 15 256
-116 443 -360 512 -74 21 -332 26 -424 9z m3668 -420 c55 -20 123 -76 145
-118 24 -46 33 -126 23 -192 -19 -117 -95 -219 -206 -274 -62 -32 -133 -55
-133 -44 0 4 14 79 30 167 43 230 40 287 -18 349 -39 41 -82 56 -163 56 -93 0
-140 -15 -193 -61 -59 -52 -79 -105 -115 -309 -42 -234 -38 -220 -64 -220 -12
0 -40 -9 -62 -19 -152 -70 -154 -283 -4 -362 l26 -14 -33 -177 c-18 -97 -36
-184 -42 -193 -8 -16 -11 -15 -32 6 -31 33 -66 111 -86 194 -22 87 -25 370 -5
489 41 249 128 438 264 569 70 67 207 140 307 162 87 20 297 14 361 -9z m2832
-893 c-60 -319 -76 -392 -100 -446 -28 -61 -86 -122 -128 -133 -40 -10 -96 17
-120 56 -25 44 -26 163 -1 260 23 91 87 218 141 278 51 57 150 112 200 112
l32 0 -24 -127z m1180 -50 c-56 -303 -101 -433 -169 -492 -61 -54 -121 -51
-160 7 -29 43 -37 103 -24 192 19 138 77 272 157 360 49 55 149 110 198 110
l32 0 -34 -177z m-6031 45 c5 -122 29 -182 108 -263 l48 -50 -19 -62 c-77
-245 -329 -248 -380 -4 -17 81 -6 232 21 305 36 95 125 175 196 176 21 0 22
-6 26 -102z m3590 0 c5 -122 29 -182 108 -263 l48 -50 -19 -62 c-77 -245 -329
-248 -380 -4 -17 81 -6 232 21 305 36 95 125 175 196 176 21 0 22 -6 26 -102z
m-4878 -1220 c-75 -315 -178 -508 -272 -508 -50 0 -76 64 -61 147 13 70 62
168 125 250 55 72 222 238 231 229 2 -2 -8 -55 -23 -118z m5976 116 c0 -15
-54 -219 -77 -289 -60 -186 -156 -335 -216 -335 -63 0 -90 75 -63 174 32 116
89 200 240 354 91 92 116 113 116 96z"/>
</g>
</svg>
