<svg width="20" height="20" viewBox="0 0 20 20" fill="none" xmlns="http://www.w3.org/2000/svg">
<path d="M10.0007 8.33301C9.08398 8.33301 8.33398 9.08301 8.33398 9.99967C8.33398 10.9163 9.08398 11.6663 10.0007 11.6663C10.9173 11.6663 11.6673 10.9163 11.6673 9.99967C11.6673 9.08301 10.9173 8.33301 10.0007 8.33301ZM10.0007 3.33301C9.08398 3.33301 8.33398 4.08301 8.33398 4.99967C8.33398 5.91634 9.08398 6.66634 10.0007 6.66634C10.9173 6.66634 11.6673 5.91634 11.6673 4.99967C11.6673 4.08301 10.9173 3.33301 10.0007 3.33301ZM10.0007 13.333C9.08398 13.333 8.33398 14.083 8.33398 14.9997C8.33398 15.9163 9.08398 16.6663 10.0007 16.6663C10.9173 16.6663 11.6673 15.9163 11.6673 14.9997C11.6673 14.083 10.9173 13.333 10.0007 13.333Z" fill="#212121"/>
</svg>
