<svg width="23" height="24" viewBox="0 0 23 24" fill="none" xmlns="http://www.w3.org/2000/svg">
<g clip-path="url(#clip0_1846_4510)">
<path d="M22.9873 12.2247C22.9873 11.2414 22.909 10.5239 22.7397 9.77979H11.7285V14.2178H18.1918C18.0616 15.3207 17.3579 16.9816 15.7942 18.0977L15.7722 18.2463L19.2538 20.9965L19.495 21.021C21.7102 18.9349 22.9873 15.8654 22.9873 12.2247Z" fill="#4285F4"/>
<path d="M11.7289 23.9173C14.8954 23.9173 17.5537 22.8543 19.4954 21.0207L15.7946 18.0973C14.8042 18.8016 13.475 19.2932 11.7289 19.2932C8.62755 19.2932 5.99531 17.2071 5.05699 14.3237L4.91945 14.3356L1.2993 17.1925L1.25195 17.3267C3.18052 21.2332 7.14196 23.9173 11.7289 23.9173Z" fill="#34A853"/>
<path d="M5.05793 14.3238C4.81034 13.5797 4.66706 12.7824 4.66706 11.9586C4.66706 11.1347 4.81034 10.3375 5.0449 9.59342L5.03834 9.43494L1.37283 6.53223L1.2529 6.59039C0.458043 8.21149 0.00195312 10.0319 0.00195312 11.9586C0.00195312 13.8853 0.458043 15.7056 1.2529 17.3267L5.05793 14.3238Z" fill="#FBBC05"/>
<path d="M11.7289 4.62403C13.9311 4.62403 15.4166 5.59401 16.2637 6.40461L19.5735 3.10928C17.5407 1.1826 14.8954 0 11.7289 0C7.14195 0 3.18052 2.68406 1.25195 6.59056L5.04396 9.59359C5.9953 6.7102 8.62754 4.62403 11.7289 4.62403Z" fill="#EB4335"/>
</g>
<defs>
<clipPath id="clip0_1846_4510">
<rect width="23" height="24" fill="white"/>
</clipPath>
</defs>
</svg>
