<svg width="229" height="237" viewBox="0 0 229 237" fill="none" xmlns="http://www.w3.org/2000/svg">
<path d="M58.9675 29.0062C73.9622 19.8713 95.3751 15.0153 117.679 15.7557C139.951 16.5023 162.18 22.8013 178.9 34.935C180.584 36.1564 182.684 36.6587 184.738 36.3317C186.792 36.0046 188.633 34.8748 189.854 33.1909C191.075 31.507 191.578 29.4068 191.251 27.3525C190.924 25.2982 189.794 23.458 188.11 22.2366C168.284 7.85679 142.812 0.90529 118.206 0.0834071C93.6435 -0.738476 69.0184 4.51907 50.8115 15.6176C49.8978 16.1359 49.0977 16.8325 48.4584 17.666C47.8191 18.4995 47.3538 19.4529 47.0901 20.4697C46.8263 21.4864 46.7695 22.5458 46.923 23.5849C47.0766 24.624 47.4372 25.6217 47.9837 26.5188C48.5302 27.4159 49.2513 28.194 50.1043 28.807C50.9572 29.4201 51.9246 29.8555 52.9491 30.0875C53.9736 30.3195 55.0342 30.3433 56.0681 30.1576C57.1019 29.9718 58.0879 29.5803 58.9675 29.0062ZM124.825 36.4596C123.802 36.3385 122.765 36.42 121.774 36.6996C120.783 36.9791 119.856 37.4512 119.047 38.0888C118.238 38.7265 117.563 39.5172 117.059 40.4159C116.556 41.3145 116.235 42.3035 116.114 43.3264C115.992 44.3493 116.074 45.386 116.354 46.3773C116.633 47.3687 117.105 48.2953 117.743 49.1042C118.38 49.9131 119.171 50.5886 120.07 51.0919C120.968 51.5952 121.957 51.9166 122.98 52.0377C172.099 57.8725 204.064 95.8046 213.425 149.145C213.816 151.164 214.984 152.948 216.678 154.114C218.371 155.28 220.455 155.734 222.48 155.379C224.505 155.024 226.31 153.887 227.505 152.214C228.701 150.542 229.191 148.466 228.872 146.435C218.683 88.37 182.727 43.3358 124.825 36.4596ZM82.7771 99.7007C58.8295 118.868 45.121 160.369 71.3272 213.321C72.2336 215.183 72.3671 217.327 71.6986 219.287C71.03 221.247 69.6136 222.862 67.7584 223.782C65.9031 224.701 63.7596 224.849 61.7954 224.194C59.8312 223.539 58.2058 222.134 57.2736 220.285C28.514 162.183 42.0907 112.167 72.9772 87.454C88.2793 75.2073 107.622 69.4792 127.134 72.5409C146.708 75.6151 165.687 87.4226 180.531 108.81C181.139 109.655 181.572 110.613 181.806 111.627C182.041 112.641 182.07 113.692 181.894 114.717C181.718 115.743 181.34 116.724 180.781 117.602C180.222 118.48 179.494 119.238 178.639 119.831C177.784 120.425 176.82 120.843 175.802 121.06C174.784 121.277 173.733 121.29 172.71 121.097C171.687 120.904 170.713 120.509 169.845 119.936C168.976 119.362 168.23 118.622 167.651 117.757C154.889 99.3744 139.468 90.3588 124.699 88.0375C109.855 85.7036 94.8983 90.0012 82.7771 99.7007ZM112.126 225.869C96.0715 193.433 91.1716 166.016 94.0889 147.866C95.5319 138.869 98.7944 132.727 102.891 129.038C106.85 125.48 112.365 123.504 120.025 124.225C130.208 125.192 134.976 128.542 137.919 132.538C141.319 137.156 143.113 143.643 145.159 152.885L145.773 155.689C149.569 173.156 154.588 196.2 178.937 213.754C180.625 214.971 182.726 215.467 184.779 215.134C186.832 214.801 188.669 213.666 189.885 211.979C191.102 210.291 191.598 208.19 191.265 206.137C190.932 204.084 189.797 202.247 188.11 201.031C168.723 187.052 164.834 169.36 160.969 151.755L160.467 149.497C158.522 140.701 156.213 130.926 150.548 123.24C144.425 114.927 135.158 109.908 121.506 108.616C110.15 107.537 100.093 110.467 92.4138 117.368C84.8788 124.144 80.4306 133.994 78.5986 145.381C74.9723 167.999 81.2525 198.847 98.0729 232.827C99.0285 234.632 100.651 235.993 102.595 236.621C104.538 237.248 106.65 237.093 108.481 236.187C110.312 235.282 111.717 233.697 112.398 231.772C113.079 229.846 112.981 227.731 112.126 225.875V225.869ZM38.8157 35.9514C40.1914 37.5107 40.8915 39.5525 40.7621 41.6279C40.6327 43.7033 39.6844 45.6423 38.1256 47.0186C28.1124 55.8585 21.3554 64.755 14.6423 76.4245C14.1282 77.3172 13.4433 78.0998 12.6267 78.7278C11.8101 79.3559 10.8778 79.8169 9.88302 80.0846C8.88825 80.3523 7.8505 80.4214 6.82901 80.288C5.80752 80.1547 4.8223 79.8214 3.9296 79.3073C3.0369 78.7932 2.25421 78.1083 1.62621 77.2917C0.998203 76.4751 0.537191 75.5428 0.269493 74.548C0.00179376 73.5533 -0.0673493 72.5155 0.0660103 71.494C0.19937 70.4725 0.532623 69.4873 1.04674 68.5946C8.42487 55.777 16.2045 45.4438 27.7485 35.2613C29.3078 33.8856 31.3496 33.1855 33.425 33.3149C35.5004 33.4443 37.4394 34.3926 38.8157 35.9514ZM192.828 146.592C192.479 144.564 191.347 142.754 189.675 141.553C188.004 140.353 185.928 139.857 183.894 140.173C181.861 140.489 180.033 141.592 178.805 143.243C177.578 144.895 177.048 146.963 177.331 149.001C180.531 169.561 191.165 182.548 204.027 191.808C204.863 192.41 205.81 192.84 206.812 193.076C207.815 193.312 208.855 193.348 209.871 193.181C210.888 193.015 211.862 192.651 212.737 192.108C213.613 191.566 214.373 190.856 214.975 190.02C215.576 189.184 216.007 188.237 216.243 187.234C216.478 186.232 216.514 185.192 216.348 184.176C216.182 183.159 215.817 182.185 215.275 181.309C214.733 180.434 214.023 179.673 213.187 179.072C202.992 171.732 195.256 162.17 192.828 146.592ZM117.051 146.247C118.079 146.17 119.112 146.296 120.09 146.618C121.069 146.941 121.975 147.452 122.755 148.125C123.536 148.797 124.177 149.617 124.64 150.537C125.104 151.457 125.382 152.459 125.459 153.487C127.372 179.053 136.733 200.711 151.771 217.92C152.471 218.692 153.01 219.596 153.357 220.578C153.703 221.561 153.851 222.602 153.79 223.642C153.73 224.682 153.463 225.7 153.005 226.636C152.547 227.571 151.907 228.406 151.122 229.092C150.338 229.778 149.425 230.3 148.436 230.629C147.447 230.958 146.403 231.086 145.364 231.007C144.326 230.928 143.313 230.642 142.386 230.167C141.458 229.692 140.635 229.037 139.964 228.241C122.635 208.415 111.982 183.527 109.818 154.654C109.741 153.627 109.867 152.595 110.188 151.617C110.51 150.638 111.022 149.733 111.693 148.952C112.365 148.172 113.184 147.531 114.103 147.067C115.023 146.602 116.024 146.324 117.051 146.247ZM92.4452 54.6477C93.3947 54.2481 94.2563 53.6654 94.9806 52.9328C95.705 52.2003 96.2779 51.3322 96.6668 50.3782C97.0557 49.4243 97.2529 48.403 97.2471 47.3728C97.2413 46.3426 97.0326 45.3237 96.633 44.3741C96.2334 43.4246 95.6507 42.563 94.9182 41.8387C94.1856 41.1143 93.3176 40.5414 92.3636 40.1525C91.4096 39.7636 90.3884 39.5665 89.3582 39.5723C88.328 39.578 87.309 39.7867 86.3595 40.1863C30.0699 63.8578 2.00665 116.816 9.46634 180.076C9.58663 181.099 9.90721 182.088 10.4098 182.987C10.9123 183.886 11.5871 184.677 12.3954 185.315C13.2037 185.954 14.1299 186.426 15.1209 186.707C16.112 186.987 17.1485 187.069 18.1714 186.949C19.1943 186.829 20.1834 186.508 21.0824 186.006C21.9814 185.503 22.7726 184.828 23.4108 184.02C24.049 183.212 24.5218 182.285 24.8021 181.294C25.0824 180.303 25.1648 179.267 25.0445 178.244C18.3126 121.151 43.2828 75.3202 92.4452 54.6351V54.6477Z" fill="#FFC6C6"/>
</svg>
