<svg width="24" height="24" viewBox="0 0 24 24" fill="none" xmlns="http://www.w3.org/2000/svg">
<path d="M13 9.5H3C2.45 9.5 2 9.95 2 10.5C2 11.05 2.45 11.5 3 11.5H13C13.55 11.5 14 11.05 14 10.5C14 9.95 13.55 9.5 13 9.5ZM13 5.5H3C2.45 5.5 2 5.95 2 6.5C2 7.05 2.45 7.5 3 7.5H13C13.55 7.5 14 7.05 14 6.5C14 5.95 13.55 5.5 13 5.5ZM18 13.5V10.5C18 9.95 17.55 9.5 17 9.5C16.45 9.5 16 9.95 16 10.5V13.5H13C12.45 13.5 12 13.95 12 14.5C12 15.05 12.45 15.5 13 15.5H16V18.5C16 19.05 16.45 19.5 17 19.5C17.55 19.5 18 19.05 18 18.5V15.5H21C21.55 15.5 22 15.05 22 14.5C22 13.95 21.55 13.5 21 13.5H18ZM3 15.5H9C9.55 15.5 10 15.05 10 14.5C10 13.95 9.55 13.5 9 13.5H3C2.45 13.5 2 13.95 2 14.5C2 15.05 2.45 15.5 3 15.5Z" fill="#212121"/>
</svg>
