<svg width="20" height="20" viewBox="0 0 20 20" fill="none" xmlns="http://www.w3.org/2000/svg">
<path fill-rule="evenodd" clip-rule="evenodd" d="M13.8871 1.67463C15.0859 1.59971 16.268 2.01594 17.1587 2.83176C17.9746 3.72251 18.3908 4.90462 18.3242 6.1117V13.887C18.3991 15.0941 17.9746 16.2762 17.1671 17.1669C16.2763 17.9828 15.0859 18.399 13.8871 18.3241H6.11174C4.90465 18.399 3.72253 17.9828 2.83177 17.1669C2.01594 16.2762 1.59971 15.0941 1.67463 13.887V6.1117C1.59971 4.90462 2.01594 3.72251 2.83177 2.83176C3.72253 2.01594 4.90465 1.59971 6.11174 1.67463H13.8871ZM9.15029 14.0368L14.7529 8.41765C15.2607 7.90152 15.2607 7.06905 14.7529 6.56124L13.6706 5.47903C13.1545 4.96289 12.322 4.96289 11.8059 5.47903L11.2481 6.04511C11.1649 6.12835 11.1649 6.26987 11.2481 6.35312C11.2481 6.35312 12.5718 7.66843 12.5968 7.70173C12.6883 7.80162 12.7466 7.93482 12.7466 8.08466C12.7466 8.38435 12.5052 8.63409 12.1972 8.63409C12.0556 8.63409 11.9224 8.57582 11.8309 8.48425L10.4406 7.10235C10.374 7.03575 10.2575 7.03575 10.1909 7.10235L6.21996 11.0732C5.94524 11.348 5.78707 11.7142 5.77875 12.1055L5.7288 14.0785C5.7288 14.1867 5.7621 14.2866 5.83702 14.3615C5.91195 14.4364 6.01184 14.478 6.12007 14.478H8.07639C8.47598 14.478 8.85892 14.3199 9.15029 14.0368Z" fill="#C10606"/>
</svg>
