<svg width="20" height="20" viewBox="0 0 20 20" fill="none" xmlns="http://www.w3.org/2000/svg">
<path fill-rule="evenodd" clip-rule="evenodd" d="M1.66602 13.4001V6.59175C1.66602 3.65008 3.55852 1.66675 6.38268 1.66675H13.6077C16.4327 1.66675 18.3327 3.65008 18.3327 6.59175V13.4001C18.3327 16.3501 16.4327 18.3334 13.6077 18.3334H6.38268C3.55852 18.3334 1.66602 16.3501 1.66602 13.4001ZM10.6243 11.8917V6.60008C10.6243 6.25008 10.341 5.97508 9.99935 5.97508C9.64935 5.97508 9.37435 6.25008 9.37435 6.60008V11.8917L7.31602 9.82508C7.19935 9.70842 7.03268 9.64175 6.87435 9.64175C6.71685 9.64175 6.55768 9.70842 6.43268 9.82508C6.19102 10.0667 6.19102 10.4667 6.43268 10.7084L9.55768 13.8501C9.79102 14.0834 10.2077 14.0834 10.441 13.8501L13.566 10.7084C13.8077 10.4667 13.8077 10.0667 13.566 9.82508C13.316 9.58342 12.9243 9.58342 12.6743 9.82508L10.6243 11.8917Z" fill="#C10606"/>
</svg>
