<svg width="20" height="20" viewBox="0 0 20 20" fill="none" xmlns="http://www.w3.org/2000/svg">
<path fill-rule="evenodd" clip-rule="evenodd" d="M6.38768 2.91699C4.27935 2.91699 2.91602 4.36116 2.91602 6.59699V13.4037C2.91602 15.6395 4.27935 17.0837 6.38768 17.0837H13.6118C15.7202 17.0837 17.0827 15.6395 17.0827 13.4037V6.59699C17.0827 4.36116 15.7202 2.91699 13.6118 2.91699H6.38768ZM13.6118 18.3337H6.38768C3.56352 18.3337 1.66602 16.352 1.66602 13.4037V6.59699C1.66602 3.64866 3.56352 1.66699 6.38768 1.66699H13.6118C16.436 1.66699 18.3327 3.64866 18.3327 6.59699V13.4037C18.3327 16.352 16.436 18.3337 13.6118 18.3337Z" fill="#212121"/>
<path fill-rule="evenodd" clip-rule="evenodd" d="M10 14.0307C9.655 14.0307 9.375 13.7507 9.375 13.4057V6.5957C9.375 6.2507 9.655 5.9707 10 5.9707C10.345 5.9707 10.625 6.2507 10.625 6.5957V13.4057C10.625 13.7507 10.345 14.0307 10 14.0307Z" fill="#212121"/>
<path fill-rule="evenodd" clip-rule="evenodd" d="M10.0001 14.0308C9.83425 14.0308 9.67425 13.965 9.55758 13.8467L6.43425 10.71C6.19008 10.465 6.19175 10.0692 6.43591 9.82585C6.68091 9.58335 7.07591 9.58168 7.31925 9.82751L10.0001 12.52L12.6809 9.82751C12.9251 9.58168 13.3201 9.58335 13.5642 9.82585C13.8084 10.0692 13.8101 10.465 13.5659 10.71L10.4426 13.8467C10.3259 13.965 10.1659 14.0308 10.0001 14.0308Z" fill="#212121"/>
</svg>
