<svg width="42" height="50" viewBox="0 0 42 50" fill="none" xmlns="http://www.w3.org/2000/svg">
<path fill-rule="evenodd" clip-rule="evenodd" d="M20.3286 49.1992C20.6022 49.3422 20.9081 49.4148 21.214 49.4124C21.52 49.41 21.8234 49.3349 22.0995 49.1895L30.9144 44.4774C33.4141 43.1449 35.3716 41.6549 36.8988 39.9203C40.2193 36.1408 42.0325 31.3172 42.0002 26.3434L41.8957 9.93682C41.8858 8.0471 40.6446 6.3609 38.809 5.74796L22.4104 0.245986C21.423 -0.0883477 20.341 -0.0810796 19.371 0.262945L3.03453 5.96115C1.20888 6.59833 -0.00988864 8.29664 6.04609e-05 10.1888L0.104526 26.5832C0.136861 31.5643 2.01227 36.3661 5.3875 40.1068C6.92961 41.8172 8.9045 43.2854 11.4316 44.5961L20.3286 49.1992ZM17.9954 29.9165C18.3635 30.2702 18.8411 30.4446 19.3186 30.4398C19.7962 30.4374 20.2713 30.2581 20.6344 29.8995L30.2676 20.4025C30.9914 19.6878 30.9839 18.5394 30.2527 17.8344C29.5189 17.1294 28.3375 17.1343 27.6137 17.849L19.2913 26.0523L15.8837 22.7768C15.15 22.0718 13.971 22.079 13.2447 22.7937C12.5209 23.5084 12.5284 24.6568 13.2621 25.3618L17.9954 29.9165Z" fill="white"/>
</svg>
