<svg width="20" height="20" viewBox="0 0 20 20" fill="none" xmlns="http://www.w3.org/2000/svg">
<path fill-rule="evenodd" clip-rule="evenodd" d="M13.2077 2.08412C13.7335 2.08412 14.2585 2.15828 14.7577 2.32578C17.8335 3.32578 18.9419 6.70078 18.016 9.65078C17.491 11.1583 16.6327 12.5341 15.5085 13.6583C13.8994 15.2166 12.1335 16.5999 10.2327 17.7916L10.0244 17.9174L9.8077 17.7833C7.9002 16.5999 6.12436 15.2166 4.5002 13.65C3.38353 12.5258 2.52436 11.1583 1.99103 9.65078C1.04936 6.70078 2.1577 3.32578 5.26686 2.30828C5.50853 2.22495 5.7577 2.16662 6.0077 2.13412H6.1077C6.34186 2.09995 6.57436 2.08412 6.8077 2.08412H6.89936C7.42436 2.09995 7.9327 2.19162 8.4252 2.35912H8.47436C8.5077 2.37495 8.5327 2.39245 8.54936 2.40828C8.73353 2.46745 8.9077 2.53412 9.07436 2.62578L9.39103 2.76745C9.46755 2.80826 9.55343 2.87062 9.62766 2.92451C9.67469 2.95865 9.71704 2.9894 9.74936 3.00912C9.76296 3.01714 9.77679 3.02521 9.79072 3.03335C9.86217 3.07505 9.9366 3.1185 9.99936 3.16662C10.9252 2.45912 12.0494 2.07578 13.2077 2.08412ZM15.4244 8.08412C15.766 8.07495 16.0577 7.80078 16.0827 7.44995V7.35078C16.1077 6.18328 15.4002 5.12578 14.3244 4.71745C13.9827 4.59995 13.6077 4.78412 13.4827 5.13412C13.366 5.48412 13.5494 5.86745 13.8994 5.99162C14.4335 6.19162 14.791 6.71745 14.791 7.29995V7.32578C14.7752 7.51662 14.8327 7.70078 14.9494 7.84245C15.066 7.98412 15.241 8.06662 15.4244 8.08412Z" fill="#C10606"/>
</svg>
